<svg width="394" height="225" xmlns="http://www.w3.org/2000/svg">
  <g fill="none" fill-rule="evenodd">
    <path d="M66.19 181.68v-.46c1.27 0 2.25-.36 2.95-1.07.39-.4.65-.92.8-1.54.14-.63.22-1.58.22-2.86v-13.93c0-1.33-.08-2.32-.24-2.95a3.1 3.1 0 0 0-2.06-2.28c-.43-.15-.99-.24-1.67-.26v-.44h12.07v.44c-.7.03-1.26.13-1.7.28a3.12 3.12 0 0 0-2.04 2.29c-.15.63-.23 1.6-.23 2.92v10.9c0 1.68.05 2.92.14 3.74.08.82.25 1.49.5 2 .45.91 1.1 1.58 1.97 2 .87.42 2.02.63 3.46.63 1.5 0 2.76-.2 3.78-.6a5.81 5.81 0 0 0 2.53-1.84c.44-.56.8-1.2 1.08-1.92.29-.72.55-1.66.79-2.84l.45.04-.25 7.75H66.2zM101.22 172.4a12.6 12.6 0 0 1-2.24 1.5c-.92.48-1.55.86-1.9 1.1-.36.26-.68.56-.96.92-.6.73-.89 1.58-.89 2.54 0 .84.23 1.52.69 2.06.46.55 1.04.82 1.74.82.61 0 1.2-.2 1.74-.58.55-.38.96-.9 1.23-1.54.4-.84.59-2.06.59-3.66v-3.16zm6.25 7.44l.32.2c-.45 1.31-1.5 1.98-3.11 1.98-.9 0-1.64-.22-2.24-.67-.39-.28-.8-.79-1.2-1.5-.85.75-1.49 1.25-1.92 1.49-.82.45-1.77.68-2.85.68a5.05 5.05 0 0 1-3.3-1 3.3 3.3 0 0 1-1.23-2.7c0-1.05.34-1.93 1-2.63.38-.4.82-.7 1.3-.94.5-.23 1.21-.47 2.14-.7 1.1-.28 1.9-.51 2.43-.7.52-.2.96-.42 1.31-.68.4-.3.68-.63.83-1.02.16-.4.23-.94.23-1.63 0-1.47-.28-2.55-.83-3.23a2.85 2.85 0 0 0-2.21-1.04 2.43 2.43 0 0 0-2.29 1.5l-.47 1.1c-.25.58-.7.88-1.36.88-.43 0-.79-.14-1.07-.43a1.43 1.43 0 0 1-.44-1.06c0-.65.45-1.19 1.36-1.63a10.87 10.87 0 0 1 3.95-.77 10.53 10.53 0 0 1 4.57 1.07 3 3 0 0 1 1.53 1.82c.1.38.15 1.01.15 1.9v7c0 1.18.05 1.98.15 2.41.22.9.73 1.34 1.55 1.34.4 0 .7-.07.92-.2.22-.14.48-.42.78-.84zM108.9 165.62h7.34v.42c-1.4.07-2.11.62-2.11 1.64 0 .5.25 1.54.75 3.13l2.29 7.03 3.22-8.5c.25-.66.38-1.19.38-1.59 0-1.08-.66-1.65-1.97-1.71v-.42h7.24v.42a3.2 3.2 0 0 0-1.3.4c-.4.27-.61.68-.61 1.24 0 .44.12 1.06.36 1.86l2.48 8.3 2.93-7.47c.38-.96.57-1.7.57-2.2 0-.68-.24-1.2-.71-1.57-.24-.2-.67-.39-1.3-.56v-.42h5.56v.42c-.54 0-1.03.17-1.46.52a3.2 3.2 0 0 0-.78.98 16.2 16.2 0 0 0-.88 1.95l-.4.96-4.5 11.23h-.65l-4.13-12.62-4.98 12.62h-.64l-3.78-11.44-.45-1.37c-.42-1.25-.84-2.03-1.28-2.36-.26-.2-.65-.36-1.2-.47v-.42zM171.1 155.9l.22 8.2-.43.05c-.87-2.8-1.99-4.88-3.35-6.25a6.7 6.7 0 0 0-4.93-2.05c-1.5 0-2.78.31-3.86.92a9.34 9.34 0 0 0-3.01 2.98 16.86 16.86 0 0 0-2.84 9.63c0 1.72.23 3.35.68 4.88a12.9 12.9 0 0 0 1.99 4.05c1.68 2.27 3.74 3.4 6.17 3.4.96 0 1.86-.2 2.7-.6.85-.4 1.54-.96 2.08-1.66a5.63 5.63 0 0 0 1.12-3.5c0-1.24-.34-2.14-1.01-2.7-.68-.55-1.79-.83-3.34-.83V172h12.06v.43c-1.11.1-1.9.26-2.34.46-.45.21-.78.57-.99 1.07-.24.55-.36 1.66-.36 3.3 0 .46.03 1.17.08 2.12l.03.44a3.49 3.49 0 0 0-1.05-.27c-.28 0-.63.15-1.06.44a12.6 12.6 0 0 1-3.82 1.73c-1.44.4-2.97.6-4.59.6-2.21 0-4.21-.37-6-1.12a10.72 10.72 0 0 1-4.33-3.25 11.5 11.5 0 0 1-1.92-3.78c-.44-1.46-.67-3.01-.67-4.65 0-2.25.4-4.35 1.21-6.29.8-1.94 1.94-3.54 3.4-4.8a13 13 0 0 1 4.14-2.36 14.7 14.7 0 0 1 7.75-.55c.86.2 1.78.5 2.75.93l1.12.51a2 2 0 0 0 .75.17c.5 0 .89-.4 1.15-1.23h.5zM183.44 168.24c.45-.79.96-1.39 1.53-1.79a6.01 6.01 0 0 1 3.57-1.11c.82 0 1.44.18 1.87.54.39.33.58.73.58 1.21 0 .35-.11.64-.35.87-.23.23-.53.34-.9.34-.42 0-.8-.18-1.1-.53l-.6-.64a2.2 2.2 0 0 0-1.64-.73c-.85 0-1.52.55-2 1.66-.48 1.1-.72 2.64-.72 4.62v3.52l.02 1.44c0 .85.05 1.48.15 1.88.1.4.3.72.59.99.35.34 1 .6 1.94.77v.4h-8.35v-.4c.76-.1 1.3-.24 1.63-.42.33-.18.6-.5.8-.93.13-.3.23-.73.29-1.3.05-.6.08-1.44.08-2.54v-4.64c0-1.29-.03-2.2-.1-2.72-.06-.51-.2-.94-.41-1.26-.21-.35-.47-.6-.77-.77a3.4 3.4 0 0 0-1.3-.29v-.4l4.86-.67c.22 1.13.33 2.1.33 2.9M197.5 173.49c0 2.19.49 4.04 1.47 5.56 1.11 1.7 2.46 2.55 4.06 2.55.68 0 1.34-.19 1.99-.57.64-.37 1.2-.9 1.66-1.58a11.26 11.26 0 0 0 1.64-5.74 10.64 10.64 0 0 0-1.77-5.83c-1.04-1.42-2.3-2.13-3.8-2.13-1.42 0-2.65.75-3.68 2.25a9.35 9.35 0 0 0-1.57 5.49m-3.44.22c0-2.05.76-3.87 2.27-5.46a8.77 8.77 0 0 1 6.6-2.91c2.55 0 4.74.97 6.56 2.9a7.8 7.8 0 0 1 .12 10.87 8.65 8.65 0 0 1-6.69 2.9 8.7 8.7 0 0 1-8.3-5.43 7.68 7.68 0 0 1-.56-2.87M228.98 182.02a11.2 11.2 0 0 1-.25-2.36 7.65 7.65 0 0 1-5.6 2.36 5.89 5.89 0 0 1-3.79-1.15 3.9 3.9 0 0 1-1.4-3.21v-6.57l-.01-1.43c0-.86-.06-1.48-.16-1.87-.1-.39-.29-.72-.56-1a3.93 3.93 0 0 0-1.97-.75v-.42h5.56v9.58c0 1.34.04 2.34.14 3 .1.64.26 1.17.52 1.59.27.43.67.76 1.18 1 .52.25 1.1.38 1.74.38.7 0 1.36-.14 1.98-.42.61-.28 1.1-.65 1.45-1.13.36-.5.6-1.06.72-1.7.12-.64.18-1.7.18-3.17v-3.7l-.02-1.4c0-.85-.05-1.47-.14-1.86a2 2 0 0 0-.58-1c-.35-.34-1-.59-1.96-.75v-.42h5.55v10.24c0 1.3.04 2.2.1 2.73.08.52.21.95.41 1.27.23.36.5.61.8.77.3.16.73.25 1.3.3v.39l-5.2.7zM242.89 173.82c0 1.74.07 3.05.22 3.93.15.88.42 1.6.81 2.13.35.48.81.86 1.38 1.15a3.8 3.8 0 0 0 1.74.44c1.33 0 2.5-.63 3.48-1.9a8.24 8.24 0 0 0 1.4-2.67 11.2 11.2 0 0 0 .03-6.41 8.51 8.51 0 0 0-1.3-2.68c-.93-1.28-2.08-1.92-3.44-1.92-.66 0-1.29.16-1.88.49a3.8 3.8 0 0 0-1.41 1.34c-.39.6-.66 1.35-.8 2.25-.16.9-.23 2.19-.23 3.85m0 6.27l.02 3.47v1.3c0 .85.04 1.48.15 1.87.1.4.3.74.58 1.01.35.34 1 .6 1.95.76v.4h-8.35v-.4c.75-.1 1.3-.24 1.62-.42.33-.18.6-.48.8-.92.13-.3.23-.73.29-1.33.06-.59.08-1.43.08-2.52v-13.05c0-1.42-.22-2.43-.67-3.03-.44-.6-1.2-.91-2.25-.91v-.47l5.51-.78c.14.6.2 1.16.2 1.67v.35c.94-.63 1.81-1.08 2.63-1.35.82-.27 1.7-.4 2.66-.4 1.91 0 3.55.57 4.9 1.72a7.27 7.27 0 0 1 1.98 2.73c.47 1.1.7 2.31.7 3.63 0 1.37-.25 2.65-.74 3.84a7.62 7.62 0 0 1-7.23 4.76c-.95 0-1.76-.14-2.45-.42-.68-.28-1.48-.78-2.38-1.51M260.69 187.32l-.17-.41c.82-.34 1.46-.7 1.94-1.08a6.37 6.37 0 0 0 2.13-4.1c-.33.12-.63.17-.88.17-.7 0-1.26-.2-1.7-.61-.44-.41-.66-.94-.66-1.6 0-.63.22-1.17.66-1.62.44-.46.97-.68 1.59-.68.75 0 1.36.3 1.83.9.46.61.7 1.41.7 2.41 0 .98-.24 1.96-.71 2.92a6.76 6.76 0 0 1-4.73 3.7M282.48 181.68v-.46c1.27 0 2.26-.36 2.95-1.07.39-.4.66-.92.8-1.54.15-.63.22-1.58.22-2.86v-13.93c0-1.33-.08-2.32-.24-2.95a3.1 3.1 0 0 0-2.06-2.28c-.43-.15-.99-.24-1.67-.26v-.44h12.07v.44c-.69.03-1.26.13-1.7.28a3.12 3.12 0 0 0-2.04 2.29c-.15.63-.22 1.6-.22 2.92v10.9c0 1.68.04 2.92.13 3.74.09.82.26 1.49.5 2 .45.91 1.1 1.58 1.97 2 .87.42 2.02.63 3.46.63 1.5 0 2.76-.2 3.79-.6a5.81 5.81 0 0 0 2.52-1.84c.44-.56.8-1.2 1.08-1.92.29-.72.55-1.66.79-2.84l.45.04-.24 7.75h-22.56zM308.01 181.68v-.46c1.27 0 2.25-.36 2.95-1.07.39-.4.65-.92.8-1.54.14-.63.22-1.58.22-2.86v-13.93c0-1.33-.08-2.32-.24-2.95a3.1 3.1 0 0 0-2.06-2.28c-.43-.15-.99-.24-1.67-.26v-.44h12.07v.44c-.7.03-1.26.13-1.7.28a3.12 3.12 0 0 0-2.04 2.29c-.15.63-.23 1.6-.23 2.92v10.9c0 1.68.05 2.92.14 3.74.08.82.25 1.49.5 2 .45.91 1.1 1.58 1.97 2 .87.42 2.02.63 3.46.63 1.5 0 2.76-.2 3.78-.6a5.81 5.81 0 0 0 2.53-1.84c.44-.56.8-1.2 1.08-1.92.29-.72.55-1.66.79-2.84l.45.04-.25 7.75h-22.55zM356.77 155.76l.23 8.44h-.44a67.7 67.7 0 0 0-.32-.83c-.44-1.2-.8-2.1-1.07-2.7a9.55 9.55 0 0 0-2.14-2.9 7 7 0 0 0-2.19-1.46 6.8 6.8 0 0 0-2.55-.46c-1.42 0-2.66.31-3.7.93a9.32 9.32 0 0 0-2.57 2.33 13.55 13.55 0 0 0-1.95 3.47 16.96 16.96 0 0 0-1.07 6.23c0 1.98.24 3.76.73 5.35.5 1.58 1.21 2.91 2.16 3.98a8.73 8.73 0 0 0 6.91 2.99c1.43 0 2.73-.25 3.87-.75a6.1 6.1 0 0 0 2.67-2.1 10.78 10.78 0 0 0 1.58-4.24l.44.08a10.08 10.08 0 0 1-1.63 4.74 7.6 7.6 0 0 1-3.33 2.57c-1.42.6-3.06.89-4.92.89a16 16 0 0 1-4.99-.78 10.96 10.96 0 0 1-5.93-4.5 13.87 13.87 0 0 1-2.14-7.77c0-2.3.42-4.43 1.25-6.38a11.78 11.78 0 0 1 3.48-4.7 14.95 14.95 0 0 1 8.9-2.97c1.52.01 3.13.3 4.83.88l1.55.51c.3.11.57.17.8.17.3 0 .57-.13.77-.4.08-.12.2-.33.32-.62h.45zM66.69 217.82c1.04.2 1.95.29 2.73.29a5.8 5.8 0 0 0 3.1-.75c.8-.5 1.5-1.34 2.07-2.52.57-1.18.85-2.47.85-3.85 0-1-.17-1.8-.52-2.45a3.47 3.47 0 0 0-1.52-1.47 5.65 5.65 0 0 0-2.55-.5c-.77 0-1.55.02-2.35.08-.16.77-.41 2.22-.77 4.35l-.13.8c-.46 2.76-.76 4.76-.91 6.02m-2.54 1.03v-.46c.3-.05.51-.12.63-.2a.97.97 0 0 0 .3-.43c.08-.2.24-.98.48-2.36l.6-3.6.12-.8c.35-2.3.53-3.63.53-3.99 0-.27-.1-.46-.33-.56-.11-.04-.56-.09-1.32-.14v-.53a42.9 42.9 0 0 0 4.24.05c1-.04 1.7-.06 2.09-.06 1.4 0 2.48.19 3.25.56.77.37 1.36.92 1.77 1.64.41.72.62 1.65.62 2.79 0 2.24-.82 4.19-2.45 5.84a7.68 7.68 0 0 1-5.71 2.3l-1.4-.04a24.45 24.45 0 0 0-3.43-.01M81.7 206.7c0-.32.1-.6.32-.84a.99.99 0 0 1 .74-.35c.21 0 .38.06.5.2.13.13.19.33.19.58 0 .34-.1.63-.31.86a.92.92 0 0 1-.7.35.71.71 0 0 1-.54-.22.81.81 0 0 1-.2-.59m-2.3 5.28l-.2-.37c1.52-1.13 2.51-1.7 2.99-1.7.15 0 .26.05.34.13.08.08.12.2.12.36 0 .39-.14 1.11-.42 2.17-.72 2.7-1.08 4.34-1.08 4.91 0 .21.1.32.28.32.22 0 .72-.28 1.48-.83l.19.36c-.88.7-1.6 1.21-2.17 1.53-.23.14-.45.2-.65.2a.54.54 0 0 1-.43-.22.98.98 0 0 1-.18-.63c0-.4.16-1.2.49-2.4.64-2.37.96-3.8.96-4.28 0-.23-.1-.35-.27-.35-.2 0-.68.27-1.46.8M85.17 216.1h.47v1.54a3.08 3.08 0 0 0 2 .72 2 2 0 0 0 1.46-.57c.38-.38.57-.86.57-1.43 0-.4-.09-.7-.28-.9-.2-.19-.6-.33-1.21-.43a5.48 5.48 0 0 1-2.11-.61c-.43-.33-.64-.81-.64-1.45 0-.49.15-.93.43-1.34.3-.41.82-.83 1.58-1.26a3.37 3.37 0 0 1 2.6-.35c.3.08.61.2.93.35a14.1 14.1 0 0 0-.33 2.12h-.43v-.68c0-.3-.06-.5-.19-.62-.4-.33-.9-.5-1.52-.5-.63 0-1.1.16-1.45.47-.34.32-.5.73-.5 1.23 0 .42.13.73.4.92.22.14.72.29 1.52.45.9.16 1.5.34 1.76.54.38.28.57.71.57 1.3 0 .8-.42 1.59-1.26 2.33a4.1 4.1 0 0 1-4.78.62c.18-.7.31-1.52.4-2.45M98.31 211.12a4.84 4.84 0 0 0-1.44-.3c-.47 0-.9.08-1.29.24-.11.06-.25.26-.42.61-.34.7-.64 1.59-.91 2.66a11.8 11.8 0 0 0-.41 2.85c0 .22.03.38.1.47.06.09.14.14.23.14.25 0 .7-.33 1.38-.97.67-.64 1.2-1.3 1.58-2a12 12 0 0 0 1.18-3.7zm1.41-1.21l.22.13a72.49 72.49 0 0 0-1.4 5.55 12 12 0 0 0-.28 1.83c0 .11.02.2.07.26.05.07.12.1.2.1.2 0 .66-.3 1.37-.89l.11.42c-.66.58-1.3 1.05-1.9 1.4-.3.16-.56.24-.78.24-.17 0-.3-.05-.37-.14-.08-.1-.12-.25-.12-.46 0-.5.2-1.55.62-3.14h-.07a14.02 14.02 0 0 1-2.78 3.05c-.66.53-1.15.8-1.45.8-.19 0-.33-.1-.43-.28a2.6 2.6 0 0 1-.23-1.22c0-.9.18-2 .54-3.25a9.39 9.39 0 0 1 1.12-2.68c.3-.4.85-.83 1.69-1.3a3.33 3.33 0 0 1 2.41-.34c.28.05.58.13.89.24l.57-.32zM103.1 216.85c0 .43.13.78.39 1.03.25.26.6.38 1.02.38.53 0 .97-.16 1.34-.48.52-.45.98-1.2 1.37-2.26.4-1.06.6-2.14.6-3.24 0-.55-.06-.91-.18-1.09-.09-.13-.29-.2-.6-.2-.63 0-1.28.32-1.94.93a5.7 5.7 0 0 0-1.49 2.54 9.08 9.08 0 0 0-.5 2.39m-1.08-10.54l.02-.38a8.83 8.83 0 0 0 3.1-.77l.23.2c-.09.36-.46 2.08-1.12 5.19l-.46 2.22a6.15 6.15 0 0 1 2.03-2.1 4.34 4.34 0 0 1 2.25-.76c.36 0 .6.1.74.32.22.34.33.86.33 1.56a8.3 8.3 0 0 1-.82 3.64 6.78 6.78 0 0 1-2.17 2.66c-.9.64-1.72.96-2.48.96-.55 0-1.01-.15-1.38-.47a1.44 1.44 0 0 1-.54-1.13c0-.35.15-1.31.47-2.88.4-1.94.8-4.14 1.2-6.61.1-.62.15-1 .15-1.16 0-.21-.08-.35-.26-.4-.08-.03-.5-.06-1.3-.1M111.5 206.3l.06-.37c1.27-.18 2.27-.44 3-.77l.26.15-1.1 5.32-.19.89-.98 4.71a8.77 8.77 0 0 0-.17 1.28c0 .12.02.22.08.28.05.06.12.09.2.09.26 0 .83-.36 1.7-1.08l.18.38a14.3 14.3 0 0 1-2.2 1.57c-.38.2-.67.3-.88.3a.54.54 0 0 1-.42-.18.78.78 0 0 1-.17-.53l.05-.43.33-1.61.9-4.18.19-.89c.2-.99.4-2.08.57-3.25.08-.58.12-.98.12-1.22 0-.21-.05-.34-.15-.39-.1-.04-.56-.06-1.37-.06M117.84 214.42a5.9 5.9 0 0 0 2.76-1.1c.58-.5.87-1.04.87-1.65 0-.32-.08-.57-.23-.73a.83.83 0 0 0-.63-.24c-.4 0-.77.11-1.13.34-.37.22-.66.56-.89 1.01-.3.6-.55 1.39-.75 2.37m4.26 2.34l.13.4c-.88.73-1.6 1.23-2.18 1.5-.57.26-1.11.4-1.62.4-.72 0-1.27-.22-1.66-.64-.39-.42-.58-1.02-.58-1.81 0-.83.16-1.75.5-2.77a5.8 5.8 0 0 1 1.13-2.2c.43-.44 1.11-.9 2.05-1.35.52-.26.99-.38 1.4-.38.51 0 .91.13 1.2.4.3.28.44.62.44 1.05 0 1.66-1.72 2.83-5.15 3.51-.12.73-.19 1.28-.19 1.63 0 .5.15.9.43 1.2.28.3.64.44 1.06.44.33 0 .72-.09 1.16-.27.44-.18 1.07-.55 1.88-1.11M130.47 211.18a4.23 4.23 0 0 0-1.82-.48c-.5 0-.9.08-1.2.25-.19.1-.36.32-.53.64-.36.7-.68 1.57-.95 2.6-.26 1.04-.4 1.89-.4 2.54 0 .45.04.75.12.88.08.13.19.2.34.2.37 0 .84-.24 1.43-.7a7.62 7.62 0 0 0 2-2.47 9.74 9.74 0 0 0 1.01-3.46m-.78-4.82l.06-.37a9.26 9.26 0 0 0 3.01-.83l.23.2c-.51 2.16-1.16 5.18-1.95 9.06a29.96 29.96 0 0 0-.53 2.97c0 .15.02.25.06.31.04.07.1.1.19.1.27 0 .79-.3 1.55-.9l.23.34c-1.5 1.2-2.5 1.81-3 1.81a.41.41 0 0 1-.33-.16c-.08-.11-.13-.27-.13-.49 0-.2.03-.48.1-.8.05-.34.24-1.18.56-2.54a10.34 10.34 0 0 1-2.55 2.93c-.95.7-1.63 1.06-2.05 1.06-.24 0-.44-.13-.6-.38a2.9 2.9 0 0 1-.29-1.47c0-1.33.28-2.68.85-4.06.4-1 1.02-1.79 1.84-2.37a4 4 0 0 1 2.27-.86c.4 0 .89.08 1.47.24l.35-2.15c.11-.63.17-1.05.17-1.23 0-.16-.05-.27-.16-.3a5.5 5.5 0 0 0-1.35-.1M140.65 206.3v-.5a38.4 38.4 0 0 0 4.72 0v.5c-.75.05-1.2.11-1.35.2-.15.08-.23.24-.23.46l.15 1.35c.25 2.13.64 5.02 1.16 8.66 2.7-4.42 4.48-7.48 5.36-9.2.22-.42.33-.74.33-.93 0-.15-.08-.27-.25-.35a3.78 3.78 0 0 0-1.24-.18v-.5l2 .06c.42 0 .97-.03 1.65-.07v.5c-.23.04-.4.1-.53.17-.12.07-.24.2-.35.37l-1.42 2.43-2.17 3.6c-.8 1.3-2 3.34-3.63 6.13h-.91c-.23-1.9-.8-5.81-1.7-11.74-.06-.4-.15-.64-.25-.72-.11-.08-.56-.15-1.34-.23M154.72 214.42a5.9 5.9 0 0 0 2.76-1.1c.58-.5.87-1.04.87-1.65 0-.32-.08-.57-.23-.73a.83.83 0 0 0-.63-.24c-.4 0-.77.11-1.13.34-.36.22-.66.56-.89 1.01-.3.6-.55 1.39-.75 2.37m4.26 2.34l.13.4c-.88.73-1.6 1.23-2.17 1.5-.58.26-1.12.4-1.63.4-.71 0-1.27-.22-1.66-.64-.39-.42-.58-1.02-.58-1.81 0-.83.16-1.75.5-2.77a5.8 5.8 0 0 1 1.14-2.2c.42-.44 1.1-.9 2.04-1.35.52-.26.99-.38 1.4-.38.51 0 .91.13 1.2.4.3.28.44.62.44 1.05 0 1.66-1.72 2.83-5.15 3.51-.12.73-.19 1.28-.19 1.63 0 .5.15.9.43 1.2.28.3.64.44 1.07.44.32 0 .7-.09 1.15-.27.45-.18 1.07-.55 1.88-1.11M165.7 216.67l.21.35c-1.63 1.35-2.72 2.03-3.28 2.03a.58.58 0 0 1-.46-.21.88.88 0 0 1-.18-.6c0-.3.13-1.08.4-2.32.38-1.69.67-3.14.9-4.34l-.68-.01h-.91l.04-.3c.6-.18 1.16-.4 1.67-.66.14-.71.3-1.8.5-3.23.5-.16.98-.37 1.47-.63l.2.16-.87 3.84.97.03c.39 0 .73-.04 1.03-.12l.08.1c-.08.29-.15.59-.2.9-.61-.05-1.3-.08-2.04-.08a51.7 51.7 0 0 0-1.04 5.73c0 .16.03.29.09.37.06.08.14.12.24.12.26 0 .88-.38 1.85-1.13M169.25 214.42a5.9 5.9 0 0 0 2.75-1.1c.58-.5.87-1.04.87-1.65 0-.32-.07-.57-.22-.73a.83.83 0 0 0-.64-.24c-.4 0-.77.11-1.13.34-.36.22-.65.56-.88 1.01-.3.6-.55 1.39-.75 2.37m4.26 2.34l.12.4c-.87.73-1.6 1.23-2.17 1.5-.57.26-1.11.4-1.62.4-.72 0-1.27-.22-1.66-.64-.4-.42-.59-1.02-.59-1.81 0-.83.17-1.75.5-2.77a5.8 5.8 0 0 1 1.14-2.2c.43-.44 1.1-.9 2.04-1.35.52-.26 1-.38 1.4-.38.52 0 .92.13 1.2.4.3.28.45.62.45 1.05 0 1.66-1.72 2.83-5.16 3.51-.12.73-.18 1.28-.18 1.63 0 .5.14.9.42 1.2.28.3.64.44 1.07.44.32 0 .71-.09 1.15-.27.45-.18 1.08-.55 1.89-1.11M175.91 212.08l-.2-.32c1.06-.8 1.86-1.33 2.4-1.61.3-.16.56-.24.76-.24.11 0 .2.03.26.1s.1.18.1.33c0 .21-.04.48-.1.81l-.62 2.78a17.8 17.8 0 0 1 2.47-3.46c.38-.38.72-.56 1.04-.56.14 0 .3.03.5.1a15.6 15.6 0 0 0-.31 1.99l-.28.06c-.16-.23-.36-.34-.59-.34-.25 0-.51.1-.79.29-.48.34-.93.86-1.35 1.57-.42.72-.74 1.5-.96 2.35l-.6 2.8c-.38.07-.8.18-1.28.32l-.16-.13a45.21 45.21 0 0 0 1.52-7.39c0-.24-.08-.37-.24-.37-.19 0-.71.31-1.57.92M189 211.12a4.84 4.84 0 0 0-1.45-.3c-.48 0-.9.08-1.3.24-.1.06-.24.26-.42.61-.33.7-.64 1.59-.9 2.66a11.8 11.8 0 0 0-.42 2.85c0 .22.04.38.1.47.06.09.14.14.23.14.25 0 .72-.33 1.39-.97.67-.64 1.2-1.3 1.58-2a12 12 0 0 0 1.18-3.7zm1.4-1.21l.21.13a72.49 72.49 0 0 0-1.39 5.55 12 12 0 0 0-.28 1.83c0 .11.02.2.07.26.05.07.12.1.2.1.2 0 .66-.3 1.37-.89l.1.42c-.65.58-1.29 1.05-1.9 1.4-.3.16-.56.24-.78.24-.16 0-.29-.05-.36-.14-.08-.1-.12-.25-.12-.46 0-.5.2-1.55.62-3.14h-.08a14.02 14.02 0 0 1-2.77 3.05c-.67.53-1.15.8-1.46.8-.18 0-.32-.1-.43-.28a2.6 2.6 0 0 1-.23-1.22c0-.9.18-2 .55-3.25a9.39 9.39 0 0 1 1.12-2.68c.29-.4.85-.83 1.68-1.3a3.33 3.33 0 0 1 2.42-.34c.28.05.57.13.89.24l.57-.32zM192.24 212l-.15-.38c1-.71 1.77-1.22 2.33-1.51.26-.14.49-.2.69-.2.14 0 .25.04.32.13.08.08.12.2.12.38 0 .13-.02.31-.07.54l-.71 3.18a11.7 11.7 0 0 1 1.87-2.3 8.14 8.14 0 0 1 2.04-1.47c.65-.3 1.16-.46 1.53-.46.17 0 .3.05.4.15.1.1.14.25.14.44 0 .18-.02.36-.06.56-.06.33-.35 1.57-.87 3.74-.39 1.6-.58 2.53-.58 2.8 0 .19.1.28.29.28.18 0 .53-.19 1.05-.55l.58-.39.17.37c-1.51 1.16-2.52 1.74-3.02 1.74a.52.52 0 0 1-.4-.18.74.74 0 0 1-.16-.5c0-.36.2-1.31.6-2.87.57-2.17.86-3.5.86-4.01 0-.13-.04-.23-.1-.3a.33.33 0 0 0-.26-.1c-.36 0-.86.25-1.5.76a7.78 7.78 0 0 0-2.16 2.61 14.96 14.96 0 0 0-1.21 4.32c-.34.04-.78.13-1.3.27l-.16-.15c.45-1.5.84-3.1 1.16-4.82.25-1.33.38-2.17.38-2.53 0-.13-.03-.22-.08-.29a.26.26 0 0 0-.21-.1c-.24 0-.74.29-1.53.85M210.57 213.83c0 1.05.15 1.88.46 2.48.3.6.76 1.08 1.38 1.43.63.35 1.36.52 2.21.52 1.85 0 3.23-.79 4.15-2.37.83-1.46 1.25-3.2 1.25-5.23 0-1.02-.15-1.84-.45-2.45a3.22 3.22 0 0 0-1.35-1.4c-.6-.33-1.33-.5-2.2-.5-1.1 0-2.02.26-2.78.78a5.65 5.65 0 0 0-1.9 2.6c-.51 1.21-.77 2.6-.77 4.14m3.65 5.22c-1.3 0-2.31-.18-3.02-.56a4.03 4.03 0 0 1-1.66-1.65c-.4-.73-.61-1.67-.61-2.81 0-2.25.65-4.21 1.96-5.9 1.3-1.67 3.19-2.51 5.66-2.51 1.69 0 2.97.43 3.84 1.3.88.87 1.31 2.11 1.31 3.72 0 1.56-.35 3-1.05 4.33a7.72 7.72 0 0 1-2.73 3.04 6.86 6.86 0 0 1-3.7 1.04M223.5 212.38h-.4l.24-.85.4-1.41c.4-.08.7-.11.9-.11.17 0 .44.03.81.08a8.55 8.55 0 0 0 1.84.06c.14-.02.32-.08.55-.19l.2.27c-1.69 1.93-2.53 3.9-2.53 5.92 0 .69.1 1.18.3 1.47.19.3.42.44.7.44.2 0 .4-.07.62-.21.35-.22.73-.64 1.14-1.25.41-.62.77-1.41 1.07-2.38.16-.53.46-1.84.87-3.92.38-.08.83-.22 1.37-.4l.15.13a30.9 30.9 0 0 0-1.06 3.9c-.2 1.01-.3 1.81-.3 2.4 0 .58.11 1.01.35 1.3.23.28.52.42.87.42.42 0 .81-.16 1.17-.47a5.65 5.65 0 0 0 1.4-2.21 8 8 0 0 0 .58-2.92c0-.44-.09-.77-.26-.98a.85.85 0 0 0-.7-.32c-.16 0-.34.05-.54.14l-.23-.24c.4-.33.74-.7 1.03-1.09a4 4 0 0 1 .59-.05c.38 0 .7.15.93.45.23.3.35.73.35 1.31 0 1.1-.31 2.27-.93 3.53a8.27 8.27 0 0 1-2.16 2.87c-.82.66-1.52.98-2.09.98-.45 0-.83-.17-1.13-.52-.31-.36-.46-.85-.46-1.47 0-.36.05-.88.17-1.55a9.29 9.29 0 0 1-1.98 2.87c-.5.45-1 .67-1.5.67-.48 0-.88-.22-1.2-.66a3.17 3.17 0 0 1-.5-1.9 6.75 6.75 0 0 1 .96-3.16c.23-.37.85-1.15 1.85-2.35a9.7 9.7 0 0 1-1.49.13l-.5-.03-.49-.02c-.21 0-.36.05-.45.15-.1.1-.26.5-.5 1.17M237.5 212l-.15-.38c1-.71 1.77-1.22 2.33-1.51.26-.14.48-.2.69-.2.14 0 .25.04.32.13.08.08.12.2.12.38 0 .13-.03.31-.07.54l-.71 3.18a11.7 11.7 0 0 1 1.87-2.3 8.14 8.14 0 0 1 2.04-1.47c.65-.3 1.16-.46 1.53-.46.16 0 .3.05.4.15.1.1.14.25.14.44 0 .18-.02.36-.07.56-.06.33-.35 1.57-.86 3.74-.39 1.6-.58 2.53-.58 2.8 0 .19.1.28.28.28.19 0 .54-.19 1.06-.55l.58-.39.16.37c-1.5 1.16-2.51 1.74-3 1.74a.52.52 0 0 1-.42-.18.73.73 0 0 1-.16-.5c0-.36.2-1.31.6-2.87.58-2.17.86-3.5.86-4.01a.43.43 0 0 0-.1-.3.34.34 0 0 0-.25-.1c-.37 0-.87.25-1.51.76a7.78 7.78 0 0 0-2.16 2.61 14.92 14.92 0 0 0-1.2 4.32c-.34.04-.78.13-1.31.27l-.15-.15c.45-1.5.83-3.1 1.16-4.82.25-1.33.38-2.17.38-2.53 0-.13-.03-.22-.08-.29a.26.26 0 0 0-.22-.1c-.23 0-.74.29-1.52.85M249.83 214.42a5.89 5.89 0 0 0 2.76-1.1c.58-.5.87-1.04.87-1.65 0-.32-.08-.57-.23-.73a.83.83 0 0 0-.63-.24c-.4 0-.77.11-1.13.34-.36.22-.66.56-.89 1.01-.3.6-.55 1.39-.75 2.37m4.26 2.34l.13.4c-.88.73-1.6 1.23-2.18 1.5-.57.26-1.1.4-1.62.4-.72 0-1.27-.22-1.66-.64-.39-.42-.58-1.02-.58-1.81 0-.83.16-1.75.5-2.77a5.82 5.82 0 0 1 1.13-2.2c.43-.44 1.12-.9 2.05-1.35.52-.26.99-.38 1.4-.38.51 0 .91.13 1.2.4.3.28.44.62.44 1.05 0 1.66-1.72 2.83-5.15 3.51-.12.73-.19 1.28-.19 1.63 0 .5.15.9.43 1.2.28.3.64.44 1.06.44.33 0 .72-.09 1.16-.27.45-.18 1.07-.55 1.88-1.11M262.47 211.18a4.23 4.23 0 0 0-1.83-.48c-.5 0-.9.08-1.2.25-.19.1-.36.32-.53.64-.36.7-.68 1.57-.94 2.6-.27 1.04-.4 1.89-.4 2.54 0 .45.03.75.11.88s.19.2.34.2c.37 0 .85-.24 1.43-.7a7.6 7.6 0 0 0 2-2.47 9.74 9.74 0 0 0 1.02-3.46m-.79-4.82l.06-.37a9.25 9.25 0 0 0 3.01-.83l.23.2c-.51 2.16-1.16 5.18-1.95 9.06a29.96 29.96 0 0 0-.53 2.97c0 .15.02.25.06.31.05.07.1.1.19.1.27 0 .79-.3 1.55-.9l.23.34c-1.5 1.2-2.5 1.81-3 1.81a.4.4 0 0 1-.32-.16c-.1-.11-.14-.27-.14-.49 0-.2.03-.48.1-.8.06-.34.25-1.18.57-2.54a10.36 10.36 0 0 1-2.56 2.93c-.95.7-1.63 1.06-2.05 1.06-.24 0-.44-.13-.6-.38a2.9 2.9 0 0 1-.29-1.47c0-1.33.29-2.68.85-4.06.41-1 1.02-1.79 1.84-2.37a4.01 4.01 0 0 1 2.28-.86c.39 0 .88.08 1.47.24l.35-2.15c.1-.63.16-1.05.16-1.23 0-.16-.05-.27-.16-.3a5.5 5.5 0 0 0-1.35-.1M278.3 214.84l-.44-.07.13-1.9c.31-.3.63-.5.95-.62.32-.12.97-.25 1.94-.39 1.28-.18 2.12-.34 2.52-.47.4-.13.7-.3.87-.52.18-.23.28-.47.28-.73 0-.21-.05-.4-.15-.54-.1-.15-.28-.3-.54-.46l.4-.35c.37.24.62.46.76.68.13.23.2.5.2.85 0 .43-.12.83-.36 1.2-.23.35-.58.64-1.02.84-.3.14-1.11.31-2.44.52.5.16.84.37 1.05.63.2.25.31.56.31.93 0 1.07-.6 2.07-1.79 3a7.5 7.5 0 0 1-4.76 1.61c-1.4 0-2.5-.35-3.31-1.06a3.55 3.55 0 0 1 .26-5.55c.46-.33 1.29-.7 2.48-1.08-.54-.23-.92-.5-1.14-.82-.23-.33-.34-.71-.34-1.17 0-.82.44-1.62 1.34-2.4a4.86 4.86 0 0 1 3.15-1.35c.35 0 .65.04.91.11.26.08.56.22.89.43-.18.76-.34 1.5-.46 2.2h-.45c0-.48 0-.85-.02-1.12-.27-.23-.53-.4-.78-.48-.24-.1-.53-.14-.85-.14-.7 0-1.26.2-1.7.63-.45.42-.67.94-.67 1.56 0 .62.22 1.1.66 1.46.44.37 1.1.55 1.95.54-.14.3-.27.62-.36.94a4.04 4.04 0 0 0-2.68.38 3.14 3.14 0 0 0-1.8 2.86c0 .9.35 1.65 1.04 2.25.69.6 1.61.9 2.77.9 1.27 0 2.3-.32 3.1-.98.8-.66 1.2-1.42 1.2-2.27 0-.5-.14-.9-.43-1.19-.3-.28-.7-.42-1.21-.42-.28 0-.52.05-.72.15-.2.1-.35.23-.46.4-.07.13-.17.46-.29 1M293.77 213.83c0 1.05.15 1.88.45 2.48.3.6.77 1.08 1.39 1.43.62.35 1.36.52 2.2.52 1.86 0 3.24-.79 4.15-2.37.84-1.46 1.26-3.2 1.26-5.23 0-1.02-.15-1.84-.46-2.45a3.22 3.22 0 0 0-1.35-1.4c-.6-.33-1.33-.5-2.2-.5-1.09 0-2.01.26-2.77.78a5.65 5.65 0 0 0-1.91 2.6c-.5 1.21-.76 2.6-.76 4.14m3.64 5.22c-1.3 0-2.3-.18-3.01-.56a4.03 4.03 0 0 1-1.67-1.65c-.4-.73-.6-1.67-.6-2.81 0-2.25.65-4.21 1.95-5.9 1.3-1.67 3.2-2.51 5.67-2.51 1.68 0 2.96.43 3.84 1.3.87.87 1.3 2.11 1.3 3.72 0 1.56-.34 3-1.04 4.33a7.72 7.72 0 0 1-2.74 3.04 6.86 6.86 0 0 1-3.7 1.04M308.28 217.75c.56.34 1.12.51 1.68.51.54 0 1.02-.18 1.45-.56.42-.38.86-1.16 1.3-2.36.45-1.2.67-2.3.67-3.32 0-.37-.06-.64-.17-.8-.1-.14-.28-.22-.51-.22-.55 0-1.16.28-1.85.85a6.2 6.2 0 0 0-1.68 2.36c-.24.55-.5 1.51-.76 2.88l-.13.66zm-2.04-5.78l-.23-.36a24.34 24.34 0 0 1 2.4-1.47c.31-.16.57-.23.76-.23.14 0 .25.04.33.13.08.1.12.23.12.4 0 .23-.18 1.2-.55 2.92a9.38 9.38 0 0 1 1.52-1.93c.5-.47 1.07-.84 1.68-1.12.62-.27 1.1-.4 1.47-.4.28 0 .5.13.67.38.25.42.38.95.38 1.58 0 1-.2 2.02-.63 3.07a6.28 6.28 0 0 1-1.32 2.23c-.47.43-1.04.86-1.73 1.27-.69.4-1.29.61-1.81.61-.31 0-.7-.07-1.17-.23-.42 2-.71 3.66-.87 4.98-.54.07-1 .16-1.37.27l-.12-.1c.61-2.6 1.27-5.86 1.95-9.77.26-1.46.39-2.37.39-2.73 0-.13-.03-.23-.09-.3a.29.29 0 0 0-.22-.09c-.2 0-.72.3-1.56.9zM317.92 214.42a5.89 5.89 0 0 0 2.75-1.1c.58-.5.87-1.04.87-1.65 0-.32-.07-.57-.22-.73a.83.83 0 0 0-.64-.24c-.39 0-.77.11-1.13.34-.36.22-.65.56-.88 1.01-.3.6-.55 1.39-.75 2.37m4.26 2.34l.13.4c-.88.73-1.6 1.23-2.18 1.5-.57.26-1.11.4-1.62.4-.72 0-1.27-.22-1.66-.64-.4-.42-.59-1.02-.59-1.81 0-.83.17-1.75.5-2.77a5.82 5.82 0 0 1 1.14-2.2c.43-.44 1.11-.9 2.04-1.35.52-.26 1-.38 1.4-.38.52 0 .92.13 1.21.4.3.28.44.62.44 1.05 0 1.66-1.72 2.83-5.16 3.51-.12.73-.18 1.28-.18 1.63 0 .5.14.9.42 1.2.28.3.64.44 1.07.44.33 0 .71-.09 1.15-.27.45-.18 1.08-.55 1.89-1.11M324.58 212.08l-.2-.32c1.06-.8 1.86-1.33 2.4-1.61.3-.16.56-.24.76-.24.11 0 .2.03.26.1s.1.18.1.33c0 .21-.04.48-.1.81l-.61 2.78a17.8 17.8 0 0 1 2.46-3.46c.38-.38.73-.56 1.04-.56.14 0 .3.03.5.1-.13.55-.23 1.22-.31 1.99l-.28.06c-.16-.23-.36-.34-.59-.34-.25 0-.51.1-.79.29-.48.34-.93.86-1.35 1.57-.42.72-.74 1.5-.96 2.35l-.6 2.8c-.38.07-.8.18-1.28.32l-.16-.13a44.69 44.69 0 0 0 1.52-7.39c0-.24-.08-.37-.24-.37-.19 0-.71.31-1.57.92M337.66 211.12a4.84 4.84 0 0 0-1.44-.3c-.48 0-.9.08-1.3.24-.1.06-.24.26-.41.61-.34.7-.64 1.59-.92 2.66a11.8 11.8 0 0 0-.4 2.85c0 .22.03.38.1.47.06.09.13.14.23.14.25 0 .7-.33 1.38-.97.67-.64 1.2-1.3 1.58-2 .52-.91.91-2.15 1.18-3.7zm1.41-1.21l.21.13a72.54 72.54 0 0 0-1.39 5.55 12.1 12.1 0 0 0-.28 1.83c0 .11.02.2.07.26.05.07.12.1.2.1.2 0 .66-.3 1.37-.89l.11.42c-.66.58-1.3 1.05-1.9 1.4-.3.16-.57.24-.79.24-.16 0-.28-.05-.36-.14-.08-.1-.12-.25-.12-.46 0-.5.2-1.55.62-3.14h-.08a14 14 0 0 1-2.77 3.05c-.66.53-1.15.8-1.45.8-.19 0-.33-.1-.44-.28a2.62 2.62 0 0 1-.23-1.22c0-.9.19-2 .55-3.25a9.39 9.39 0 0 1 1.12-2.68c.29-.4.85-.83 1.68-1.3a3.33 3.33 0 0 1 2.42-.34c.28.05.57.13.89.24l.57-.32zM345.5 216.67l.22.35c-1.63 1.35-2.73 2.03-3.28 2.03a.58.58 0 0 1-.46-.21.88.88 0 0 1-.19-.6c0-.3.14-1.08.4-2.32.38-1.69.68-3.14.9-4.34l-.68-.01h-.91l.05-.3c.6-.18 1.15-.4 1.66-.66.14-.71.31-1.8.5-3.23.5-.16.99-.37 1.47-.63l.21.16c-.15.61-.45 1.9-.88 3.84l.97.03c.4 0 .73-.04 1.03-.12l.09.1c-.09.29-.16.59-.22.9-.6-.05-1.28-.08-2.02-.08a51.7 51.7 0 0 0-1.05 5.73c0 .16.03.29.1.37.05.08.13.12.23.12.26 0 .88-.38 1.85-1.13M349.05 214.42a5.89 5.89 0 0 0 2.75-1.1c.59-.5.88-1.04.88-1.65 0-.32-.08-.57-.23-.73a.83.83 0 0 0-.64-.24c-.39 0-.76.11-1.13.34-.36.22-.65.56-.88 1.01-.3.6-.55 1.39-.75 2.37m4.26 2.34l.13.4c-.88.73-1.6 1.23-2.18 1.5-.57.26-1.11.4-1.62.4-.72 0-1.27-.22-1.66-.64-.39-.42-.58-1.02-.58-1.81 0-.83.16-1.75.5-2.77a5.82 5.82 0 0 1 1.13-2.2c.43-.44 1.11-.9 2.04-1.35.53-.26 1-.38 1.41-.38.51 0 .91.13 1.2.4.3.28.44.62.44 1.05 0 1.66-1.72 2.83-5.15 3.51-.13.73-.19 1.28-.19 1.63 0 .5.14.9.43 1.2.28.3.63.44 1.06.44.33 0 .71-.09 1.16-.27.44-.18 1.07-.55 1.88-1.11M361.68 211.18a4.23 4.23 0 0 0-1.82-.48c-.5 0-.9.08-1.2.25-.19.1-.36.32-.53.64-.36.7-.68 1.57-.95 2.6-.26 1.04-.4 1.89-.4 2.54 0 .45.04.75.12.88.07.13.19.2.33.2.38 0 .85-.24 1.43-.7a7.6 7.6 0 0 0 2-2.47 9.74 9.74 0 0 0 1.02-3.46m-.78-4.82l.06-.37a9.25 9.25 0 0 0 3.01-.83l.23.2c-.51 2.16-1.16 5.18-1.95 9.06a29.96 29.96 0 0 0-.53 2.97c0 .15.02.25.06.31.04.07.1.1.18.1.28 0 .8-.3 1.56-.9l.23.34c-1.5 1.2-2.5 1.81-3 1.81a.4.4 0 0 1-.33-.16c-.08-.11-.13-.27-.13-.49 0-.2.03-.48.1-.8.05-.34.24-1.18.56-2.54a10.36 10.36 0 0 1-2.55 2.93c-.95.7-1.63 1.06-2.05 1.06-.24 0-.44-.13-.6-.38a2.9 2.9 0 0 1-.29-1.47c0-1.33.28-2.68.85-4.06.4-1 1.02-1.79 1.83-2.37a4.01 4.01 0 0 1 2.28-.86c.4 0 .89.08 1.47.24l.35-2.15c.11-.63.17-1.05.17-1.23 0-.16-.05-.27-.16-.3a5.5 5.5 0 0 0-1.35-.1" fill="#FFF"/>
    <path d="M64.3 194.17h302.26" stroke="#FFF" stroke-width=".52"/>
    <path d="M28.28 58.64a29.96 29.96 0 0 0 4.32-3.98c.96-1.15 1.8-2.52 2.54-4.11a22.56 22.56 0 0 0 2.14-9.75c0-4.09-.98-7.34-2.93-9.75a9.63 9.63 0 0 0-7.89-3.62c-2.85 0-5.16.92-6.91 2.76-1.75 1.84-2.63 4.23-2.63 7.17 0 1.76.36 3.52 1.07 5.28a46.67 46.67 0 0 0 4.06 7.23c1.92 2.95 4 5.87 6.23 8.77zm-7.67 6.8c-3.38 2.1-6 5-7.87 8.71a27.33 27.33 0 0 0-2.8 12.45c0 3.15.48 6.2 1.46 9.14a23.2 23.2 0 0 0 3.99 7.48 16.24 16.24 0 0 0 5.6 4.29 16.09 16.09 0 0 0 6.9 1.53c3.8 0 7.2-1.18 10.18-3.55 1.1-.9 2.1-1.9 3-3 .9-1.11 2.02-2.73 3.37-4.85l-23.83-32.2zM29.45 60l20.52 28.45c2.86-5.34 4.87-9.44 6.01-12.3 1.14-2.85 1.72-5.28 1.72-7.28 0-3.95-2.84-6.34-8.52-7.15v-1.3h23.85v1.24a16.6 16.6 0 0 0-4.6.95c-1.19.47-2.31 1.2-3.37 2.17-2.09 1.96-4.66 6.13-7.73 12.51l-1.9 3.93a145.8 145.8 0 0 1-4.48 8.64c1.56 2.05 3.39 4.24 5.5 6.6a87.58 87.58 0 0 0 5.6 5.79 33.9 33.9 0 0 0 6.1 4.63c1.74.96 3.43 1.44 5.06 1.44a6.7 6.7 0 0 0 4.42-1.47c1.18-.98 2.22-2.58 3.12-4.79l1.23.55c-2.05 6.96-6.44 10.43-13.19 10.43-2.25 0-4.6-.43-7.05-1.29a24.38 24.38 0 0 1-6.69-3.55 58.55 58.55 0 0 1-9.5-9.26 68 68 0 0 1-4.42 5.88 24.31 24.31 0 0 1-18.48 8.22 25.8 25.8 0 0 1-9.6-1.84 20.33 20.33 0 0 1-7.59-5.03C1.82 102.28 0 97.37 0 91.45 0 85.6 1.76 80.29 5.27 75.5a31.92 31.92 0 0 1 5-5.3 79.12 79.12 0 0 1 8-5.8l.98-.67a76.21 76.21 0 0 1-5.4-8.52c-2.49-4.82-3.73-9.14-3.73-12.94 0-2.37.57-4.72 1.72-7.05a15.26 15.26 0 0 1 6.32-7c2.79-1.59 6.13-2.38 10.02-2.38 5.07 0 9.25 1.38 12.53 4.14a13.28 13.28 0 0 1 4.91 10.63c0 3.2-.84 6.02-2.52 8.5-1.68 2.47-4.4 4.9-8.18 7.26A184 184 0 0 0 29.45 60zM140.24 118.72a29.76 29.76 0 0 1-5.28 3.52 46.3 46.3 0 0 0-4.48 2.62c-.82.6-1.58 1.3-2.26 2.13a9.27 9.27 0 0 0-2.08 6c0 1.97.54 3.58 1.62 4.86a5.14 5.14 0 0 0 4.1 1.9 7 7 0 0 0 4.1-1.35 8.37 8.37 0 0 0 2.9-3.62c.92-1.99 1.38-4.86 1.38-8.63v-7.43zm14.72 17.53l.75.44c-1.06 3.11-3.5 4.67-7.33 4.67-2.11 0-3.86-.52-5.26-1.56a11.76 11.76 0 0 1-2.85-3.55 29.55 29.55 0 0 1-4.5 3.5 13.68 13.68 0 0 1-6.72 1.6c-3.27 0-5.86-.78-7.78-2.35a7.8 7.8 0 0 1-2.87-6.36c0-2.46.79-4.52 2.36-6.18a10.5 10.5 0 0 1 3.07-2.2 29.4 29.4 0 0 1 5.02-1.67c2.58-.65 4.49-1.2 5.72-1.64 1.23-.45 2.26-.98 3.09-1.6a5.36 5.36 0 0 0 1.96-2.4c.35-.93.53-2.2.53-3.83 0-3.47-.65-6-1.96-7.6a6.42 6.42 0 0 0-2.29-1.78 6.7 6.7 0 0 0-2.91-.67 5.7 5.7 0 0 0-5.38 3.51l-1.11 2.58a3.2 3.2 0 0 1-3.2 2.1 3.48 3.48 0 0 1-3.56-3.52c0-1.51 1.06-2.79 3.2-3.83a25.54 25.54 0 0 1 9.3-1.82c1.85 0 3.77.24 5.76.71 1.99.48 3.65 1.08 4.99 1.82 1.93 1.1 3.13 2.53 3.6 4.27.24.9.36 2.4.36 4.5v16.45c0 2.79.12 4.69.36 5.7.5 2.1 1.72 3.15 3.65 3.15.91 0 1.63-.16 2.15-.49a7.68 7.68 0 0 0 1.85-1.95zM156.25 79.68l12.8-1.6v49.59l.05 3.38c0 2.01.12 3.49.36 4.42.23.93.7 1.71 1.37 2.33.83.8 2.36 1.41 4.59 1.83v.93h-19.66v-.93c1.78-.24 3.05-.57 3.82-1a4.58 4.58 0 0 0 1.87-2.2c.33-.68.56-1.71.7-3.09.12-1.38.2-3.36.2-5.97V92.51c0-3.02-.08-5.15-.23-6.4a6.98 6.98 0 0 0-.98-3.01 4.55 4.55 0 0 0-1.82-1.78 8.33 8.33 0 0 0-3.07-.67v-.97zM206.64 114.63c-.21-2.96-.76-5.25-1.64-6.85a9.3 9.3 0 0 0-3.19-3.44 7.78 7.78 0 0 0-4.25-1.27c-2.54 0-4.76 1.1-6.66 3.29a14.64 14.64 0 0 0-3.39 8.27h19.13zm-19.4 1.74a25.64 25.64 0 0 0 .95 10.72c.76 2.46 1.79 4.5 3.09 6.13a14.08 14.08 0 0 0 4.94 3.91c1.97.95 4.03 1.43 6.18 1.43 1.6 0 3.11-.27 4.55-.8a9.76 9.76 0 0 0 3.56-2.23c1.07-1.03 1.98-2.7 2.75-4.98l.94.31c-.77 3.47-2.43 6.09-4.96 7.85-2.54 1.77-5.91 2.65-10.12 2.65-3.65 0-6.78-.58-9.38-1.73a16.65 16.65 0 0 1-6.63-5.34c-2.52-3.35-3.78-7.47-3.78-12.37 0-6.67 2.39-11.9 7.16-15.7a18.56 18.56 0 0 1 11.87-4.13c2.38 0 4.57.42 6.59 1.27 2.01.84 3.72 2.07 5.11 3.67 2.16 2.49 3.25 5.6 3.25 9.34h-26.06zM231.58 108.93a12.93 12.93 0 0 1 3.6-4.22 14.16 14.16 0 0 1 8.41-2.62c1.93 0 3.4.43 4.4 1.29a3.58 3.58 0 0 1 1.38 2.84c0 .83-.27 1.51-.82 2.05a2.9 2.9 0 0 1-2.11.8c-1.01 0-1.88-.42-2.63-1.25l-1.37-1.5a5.17 5.17 0 0 0-3.87-1.74c-2.02 0-3.6 1.3-4.72 3.9-1.12 2.62-1.69 6.24-1.69 10.9v8.3l.05 3.37c0 2.02.11 3.49.35 4.42.24.94.7 1.71 1.38 2.33.83.8 2.36 1.41 4.58 1.83v.93h-19.65v-.93c1.77-.24 3.05-.57 3.82-1a4.56 4.56 0 0 0 1.87-2.2c.32-.67.55-1.7.69-3.07.13-1.37.2-3.35.2-5.95v-10.93c0-3.03-.08-5.17-.22-6.4a6.92 6.92 0 0 0-.98-2.98 4.7 4.7 0 0 0-1.83-1.79 8.01 8.01 0 0 0-3.07-.69v-.93l11.47-1.6c.51 2.66.76 4.94.76 6.84M263.25 102.09c.53 2.08.87 4.14 1.02 6.18a20.1 20.1 0 0 1 6.3-4.58 17.26 17.26 0 0 1 7.27-1.6c2.78 0 5.11.71 6.98 2.14 1.12.85 2.41 2.35 3.87 4.49a24.04 24.04 0 0 1 6.8-5.03 17.22 17.22 0 0 1 7.38-1.6c3.56 0 6.46.97 8.7 2.9a9.6 9.6 0 0 1 3.36 7.63v15.06l.04 3.37c0 2.02.12 3.49.36 4.42.23.94.68 1.71 1.33 2.33.86.8 2.4 1.41 4.63 1.83v.93h-19.66v-.93c1.78-.24 3.05-.57 3.8-1a4.87 4.87 0 0 0 1.9-2.2c.32-.68.55-1.71.68-3.09.14-1.38.2-3.35.2-5.93v-8.48c0-3.29-.1-5.69-.3-7.2-.22-1.5-.62-2.8-1.2-3.86-1.4-2.52-3.8-3.78-7.2-3.78-3.66 0-6.32 1.36-7.98 4.09-1.45 2.34-2.18 5.98-2.18 10.92v8.58l.05 3.37c0 2.02.12 3.49.35 4.42.24.94.69 1.71 1.34 2.33.83.8 2.37 1.41 4.62 1.83v.93h-19.65v-.93a11.3 11.3 0 0 0 3.8-1 4.87 4.87 0 0 0 1.89-2.2c.33-.68.56-1.71.69-3.09.13-1.38.2-3.35.2-5.93v-8.22c0-3.46-.11-6-.33-7.61a10.1 10.1 0 0 0-1.27-3.94 6.76 6.76 0 0 0-2.75-2.5 8.62 8.62 0 0 0-4-.91 9.84 9.84 0 0 0-8.24 4.44 12.26 12.26 0 0 0-1.71 4.37c-.34 1.7-.51 3.9-.51 6.6v8.13l.04 3.28c0 2.02.12 3.49.36 4.42.23.94.7 1.71 1.38 2.33.83.8 2.35 1.41 4.58 1.83v.93h-19.66v-.93c1.78-.24 3.05-.57 3.82-1a4.56 4.56 0 0 0 1.87-2.2c.33-.68.56-1.7.7-3.08.13-1.38.2-3.36.2-5.97v-10.95c0-3.05-.08-5.19-.23-6.42a6.94 6.94 0 0 0-.98-2.99 4.7 4.7 0 0 0-1.82-1.8 7.98 7.98 0 0 0-3.07-.68v-.94l12.23-1.51zM340.47 109.22c0-1.28.13-5.01 4.47-5.01.31 0 .62.09.93.16 1.47.84 2.8 2.07 4 3.72 1.27 1.77 2.29 3.9 3.05 6.37.49 1.6.76 3.19.93 4.77-4.8-1.07-13.38-4.21-13.38-10.01m20.68-38.44c-15.81 0-27 6.65-27 15.03 0 4 3.42 8.93 11.85 8.93 6.06 0 9.75-2.64 9.75-5.92 0-1.83-1.72-3.56-5.93-4.1 1.32.73 1.58 1.55 1.58 2.27 0 1.83-1.84 3.83-5.93 3.83-5.8 0-8.43-3.1-8.43-6.37 0-7.66 11.99-12.66 23.05-12.66 18.45 0 28.72 9.83 28.72 23.22 0 12.07-11.9 22.34-26.92 24.18a18.67 18.67 0 0 0-5.08-10.25 20.62 20.62 0 0 0-12.02-6.51h-.03a8.3 8.3 0 0 0-6.48 3.03c-.54.93-.84 2-.84 3.12 0 5.06 7.38 10.48 16.54 12.35.01.3.07.6.07.88 0 2.34-.36 4.76-1.07 7.27a20.81 20.81 0 0 1-2.8 6.24c-1.1 1.6-2.4 2.84-3.91 3.73a9.1 9.1 0 0 1-4.67 1.33c-3.77 0-6.95-2-9.56-6-2.32-3.58-3.47-7.95-3.47-13.1 0-5.1 1.23-9.4 3.69-12.93 1.77-2.56 3.79-4.17 6.05-4.86.31-.46.68-.87 1.13-1.21-5.2.44-9.77 2.59-13.63 6.66-3.56 3.77-5.34 8.05-5.34 12.85 0 2.31.44 4.57 1.32 6.76.87 2.2 2.12 4.18 3.75 5.96 4.18 4.57 9.45 6.85 15.8 6.85 6.34 0 11.58-2.28 15.73-6.85a18.29 18.29 0 0 0 5.07-12.68c0-.29-.06-.56-.08-.85l1.2-.01c18.18-1.74 30.43-14.21 30.43-27.05 0-12.66-13.05-23.14-32.54-23.14" fill="#FFF"/>
    <path d="M85.69 108.83h4.48c3.01 0 5.33-.22 6.96-.66a10.29 10.29 0 0 0 4.36-2.44c2.99-2.71 4.48-6.32 4.48-10.83 0-2.5-.43-4.79-1.3-6.87a12.71 12.71 0 0 0-3.72-5.1 12.09 12.09 0 0 0-6.63-2.74c-.7-.06-2.3-.09-4.8-.09H85.7v28.73zm0 1.47v16.4c0 3.1.17 5.4.52 6.91a7.73 7.73 0 0 0 4.8 5.62c1.08.41 2.5.66 4.27.76v1.05H66.1v-1.05c1.77-.1 3.2-.35 4.27-.76a7.76 7.76 0 0 0 4.82-5.6c.34-1.49.5-3.8.5-6.94V93.03c0-2.62-.1-4.64-.34-6.05a9.35 9.35 0 0 0-1.16-3.45 7.48 7.48 0 0 0-3.02-2.72c-1.21-.6-2.8-.95-4.75-1.07h-.32v-1.06h27.55c4.8 0 8.36.25 10.64.74 2.28.48 4.37 1.46 6.26 2.92a15.7 15.7 0 0 1 6.48 13.15c0 5.58-2.19 9.66-6.57 12.25a19.48 19.48 0 0 1-8.32 2.42c-1.03.09-3.53.14-7.49.14H85.7zM93.83 29.99v17.74c0 3.03.16 5.26.49 6.7a7.64 7.64 0 0 0 1.87 3.62c.8.86 1.74 1.49 2.82 1.89 1.08.4 2.47.64 4.16.73v1.03H74.75v-1.03c1.42 0 2.77-.23 4.05-.69a7.35 7.35 0 0 0 2.98-1.84 8.17 8.17 0 0 0 1.78-3.78c.35-1.6.53-3.81.53-6.63V14.95c0-1.9-.1-3.86-.31-5.91a7.28 7.28 0 0 0-3.83-5.83c-1.24-.68-2.98-1.08-5.2-1.2V1h46.47l1.3 14.45-1.03.23a31.36 31.36 0 0 0-2.05-5.07 14.87 14.87 0 0 0-10.9-7.74c-1.89-.33-4.5-.49-7.82-.49h-6.9v26.24h1.79c5.24 0 9.05-1.17 11.43-3.52a9.9 9.9 0 0 0 2.35-3.57c.54-1.38.9-3.18 1.07-5.4l1.02.04-.26 26.95h-1.07c-.33-3.03-.88-5.36-1.67-7a9.45 9.45 0 0 0-3.58-3.99 12.93 12.93 0 0 0-4.38-1.62 35.8 35.8 0 0 0-6.7-.51M146.7 39.86a29.7 29.7 0 0 1-5.27 3.51 46.25 46.25 0 0 0-4.48 2.63c-.82.6-1.58 1.3-2.26 2.13a9.27 9.27 0 0 0-2.08 6c0 1.96.54 3.58 1.62 4.85a5.14 5.14 0 0 0 4.1 1.92 7 7 0 0 0 4.1-1.36 8.37 8.37 0 0 0 2.9-3.63c.92-1.98 1.38-4.86 1.38-8.62v-7.43zm14.73 17.52l.75.45c-1.06 3.11-3.51 4.67-7.34 4.67-2.1 0-3.86-.52-5.25-1.56a11.75 11.75 0 0 1-2.85-3.56 29.49 29.49 0 0 1-4.5 3.52 13.68 13.68 0 0 1-6.73 1.6c-3.26 0-5.85-.79-7.77-2.36a7.8 7.8 0 0 1-2.87-6.36c0-2.46.79-4.52 2.36-6.18a10.5 10.5 0 0 1 3.07-2.2c1.15-.55 2.83-1.1 5.02-1.67 2.58-.65 4.49-1.2 5.72-1.65 1.23-.44 2.26-.98 3.09-1.6a5.36 5.36 0 0 0 1.95-2.4c.36-.92.54-2.2.54-3.82 0-3.47-.66-6-1.96-7.6a6.7 6.7 0 0 0-5.2-2.45 5.73 5.73 0 0 0-5.38 3.51l-1.12 2.58a3.2 3.2 0 0 1-3.2 2.09 3.48 3.48 0 0 1-3.56-3.52c0-1.5 1.07-2.78 3.21-3.82 1.16-.53 2.6-.97 4.3-1.31 1.7-.34 3.38-.51 5.01-.51 1.84 0 3.76.23 5.75.71a19.8 19.8 0 0 1 4.99 1.82c1.93 1.1 3.13 2.52 3.6 4.27.24.89.36 2.39.36 4.5v16.45c0 2.79.12 4.68.36 5.7.5 2.1 1.72 3.15 3.64 3.15.92 0 1.64-.16 2.16-.5a7.71 7.71 0 0 0 1.85-1.95zM174.95 30.07a12.93 12.93 0 0 1 3.6-4.22 14.16 14.16 0 0 1 8.4-2.62c1.93 0 3.4.43 4.4 1.29a3.58 3.58 0 0 1 1.39 2.84c0 .83-.28 1.51-.83 2.04a2.9 2.9 0 0 1-2.11.8c-1 0-1.88-.41-2.62-1.24l-1.38-1.51a5.17 5.17 0 0 0-3.87-1.73c-2.02 0-3.59 1.3-4.71 3.9-1.13 2.61-1.7 6.24-1.7 10.89v8.3l.05 3.38c0 2.01.12 3.49.35 4.42.24.93.7 1.7 1.38 2.33.83.8 2.36 1.4 4.58 1.82v.94h-19.65v-.94a11.5 11.5 0 0 0 3.82-1 4.57 4.57 0 0 0 1.87-2.18c.33-.68.56-1.7.69-3.08.13-1.37.2-3.35.2-5.95V37.62c0-3.04-.08-5.17-.22-6.4a6.92 6.92 0 0 0-.98-2.98 4.7 4.7 0 0 0-1.83-1.8 8.02 8.02 0 0 0-3.06-.68v-.93l11.46-1.6c.51 2.66.77 4.94.77 6.84M206.6 23.23c.54 2.07.89 4.13 1.03 6.18a20.12 20.12 0 0 1 6.3-4.58 17.26 17.26 0 0 1 7.27-1.6c2.78 0 5.11.7 6.98 2.13 1.13.86 2.42 2.36 3.87 4.5a24.04 24.04 0 0 1 6.8-5.03 17.22 17.22 0 0 1 7.39-1.6c3.55 0 6.45.97 8.7 2.9a9.6 9.6 0 0 1 3.35 7.62v15.06l.04 3.38c0 2.01.12 3.49.36 4.42.24.93.68 1.71 1.33 2.33.86.8 2.4 1.4 4.63 1.82v.94h-19.66v-.94c1.78-.23 3.05-.57 3.8-1a4.87 4.87 0 0 0 1.9-2.2c.32-.68.55-1.7.68-3.08.14-1.38.2-3.36.2-5.93v-8.49c0-3.28-.1-5.68-.3-7.2-.21-1.5-.62-2.8-1.2-3.86-1.4-2.51-3.8-3.77-7.2-3.77-3.66 0-6.32 1.36-7.98 4.08-1.45 2.34-2.17 5.99-2.17 10.93v8.57l.04 3.38c0 2.01.12 3.49.36 4.42.23.93.68 1.71 1.33 2.33.83.8 2.37 1.4 4.63 1.82v.94h-19.66v-.94c1.78-.23 3.05-.57 3.8-1a4.87 4.87 0 0 0 1.9-2.2 9.7 9.7 0 0 0 .68-3.08c.13-1.38.2-3.36.2-5.93v-8.22a62 62 0 0 0-.33-7.62 10.08 10.08 0 0 0-1.27-3.93 6.75 6.75 0 0 0-2.75-2.5 8.62 8.62 0 0 0-4-.92 9.84 9.84 0 0 0-8.24 4.44 12.26 12.26 0 0 0-1.71 4.38 34.7 34.7 0 0 0-.51 6.6v8.12l.04 3.29c0 2.01.12 3.49.36 4.42.24.93.7 1.71 1.38 2.33.83.8 2.36 1.4 4.58 1.82v.94h-19.66v-.94c1.78-.23 3.06-.57 3.83-1a4.56 4.56 0 0 0 1.86-2.2c.33-.67.56-1.7.7-3.07.13-1.38.2-3.37.2-5.97V37.56c0-3.04-.08-5.18-.23-6.4a6.96 6.96 0 0 0-.98-3 4.7 4.7 0 0 0-1.82-1.8 7.99 7.99 0 0 0-3.07-.69v-.93l12.23-1.51zM295.56 35.77c-.21-2.97-.76-5.25-1.64-6.85a9.32 9.32 0 0 0-3.19-3.45 7.79 7.79 0 0 0-4.25-1.26c-2.54 0-4.76 1.1-6.66 3.29a14.64 14.64 0 0 0-3.39 8.27h19.13zm-19.4 1.73a25.71 25.71 0 0 0 .95 10.72c.76 2.46 1.79 4.5 3.09 6.14a14.07 14.07 0 0 0 4.94 3.91c1.97.95 4.03 1.42 6.18 1.42 1.6 0 3.11-.26 4.55-.8a9.76 9.76 0 0 0 3.56-2.22c1.07-1.04 1.98-2.7 2.75-4.98l.94.31c-.77 3.47-2.43 6.09-4.96 7.85-2.54 1.76-5.91 2.65-10.12 2.65-3.65 0-6.77-.58-9.38-1.74a16.66 16.66 0 0 1-6.63-5.33c-2.52-3.35-3.78-7.48-3.78-12.37 0-6.67 2.39-11.9 7.16-15.7a18.56 18.56 0 0 1 11.87-4.13c2.38 0 4.57.42 6.59 1.26 2.01.85 3.72 2.07 5.11 3.67 2.17 2.5 3.25 5.6 3.25 9.34h-26.06zM320.5 30.07a12.92 12.92 0 0 1 3.6-4.22 14.16 14.16 0 0 1 8.41-2.62c1.93 0 3.4.43 4.4 1.29a3.58 3.58 0 0 1 1.39 2.84c0 .83-.28 1.51-.83 2.04a2.9 2.9 0 0 1-2.11.8c-1 0-1.88-.41-2.62-1.24l-1.38-1.51a5.17 5.17 0 0 0-3.87-1.73c-2.02 0-3.59 1.3-4.72 3.9-1.12 2.61-1.69 6.24-1.69 10.89v8.3l.05 3.38c0 2.01.12 3.49.35 4.42.24.93.7 1.7 1.38 2.33.83.8 2.36 1.4 4.58 1.82v.94H307.8v-.94a11.5 11.5 0 0 0 3.82-1 4.56 4.56 0 0 0 1.87-2.18c.32-.68.56-1.7.69-3.08.13-1.37.2-3.35.2-5.95V37.62c0-3.04-.08-5.17-.22-6.4a6.93 6.93 0 0 0-.98-2.98 4.7 4.7 0 0 0-1.83-1.8 8.03 8.03 0 0 0-3.06-.68v-.93l11.46-1.6c.51 2.66.77 4.94.77 6.84" fill="#FFF"/>
  </g>
</svg>
